<svg width="20" height="20" viewBox="0 0 20 20" fill="none" xmlns="http://www.w3.org/2000/svg">
<path d="M19.5516 15.8058L16.4629 12.7168C15.8477 12.1041 14.8289 12.1227 14.1923 12.7596L12.6362 14.3153C12.5379 14.2611 12.4361 14.2045 12.3291 14.1445C11.3465 13.6 10.0015 12.8537 8.58628 11.4374C7.16683 10.0182 6.41986 8.67115 5.87372 7.68786C5.81609 7.58369 5.76087 7.48325 5.70634 7.38787L6.75071 6.34506L7.26416 5.83098C7.90178 5.19319 7.91936 4.17468 7.30559 3.56016L4.2169 0.470783C3.60313 -0.142874 2.58387 -0.124258 1.94626 0.513532L1.07576 1.38903L1.09955 1.41264C0.807657 1.78509 0.563746 2.21465 0.382234 2.67788C0.214915 3.11882 0.110743 3.53959 0.0631095 3.96122C-0.344731 7.34231 1.20033 10.4324 5.39342 14.6255C11.1896 20.4213 15.8605 19.9834 16.062 19.962C16.5009 19.9096 16.9214 19.8047 17.3489 19.6387C17.8081 19.4593 18.2374 19.2158 18.6096 18.9245L18.6286 18.9414L19.5105 18.0779C20.1468 17.4402 20.1651 16.4213 19.5516 15.8058Z" fill="#3E7850"/>
</svg>
